<svg xmlns="http://www.w3.org/2000/svg" xmlns:xlink="http://www.w3.org/1999/xlink" width="500" zoomAndPan="magnify" viewBox="0 0 375 374.999991" height="500" preserveAspectRatio="xMidYMid meet" version="1.0"><defs><g/><clipPath id="f0ea528c01"><path d="M 149.59375 94.042969 L 187.5 94.042969 L 187.5 232.757812 L 149.59375 232.757812 Z M 149.59375 94.042969 " clip-rule="nonzero"/></clipPath><clipPath id="0e98151cf4"><path d="M 60.679688 247.71875 L 314 247.71875 L 314 279 L 60.679688 279 Z M 60.679688 247.71875 " clip-rule="nonzero"/></clipPath></defs><rect x="-37.5" width="450" fill="#ffffff" y="-37.499999" height="449.999989" fill-opacity="1"/><rect x="-37.5" width="450" fill="#ffffff" y="-37.499999" height="449.999989" fill-opacity="1"/><rect x="-37.5" width="450" fill="#941b1b" y="-37.499999" height="449.999989" fill-opacity="1"/><g fill="#faf6f5" fill-opacity="1"><g transform="translate(187.499992, 228.969873)"><g><path d="M 9.613281 0 L 19.230469 0 C 19.230469 0 19.109375 -28.964844 19.109375 -57.449219 C 19.109375 -61.175781 20.671875 -63.339844 24.519531 -63.460938 L 25.480469 -63.460938 C 43.386719 -63.460938 64.660156 -12.5 83.769531 0 L 97.953125 0 C 91.824219 -4.328125 81.488281 -14.902344 72.953125 -27.164062 C 56.488281 -50.71875 47.355469 -65.503906 31.96875 -65.503906 L 29.445312 -65.503906 C 25.839844 -65.503906 25.359375 -67.066406 28.242188 -69.226562 L 94.226562 -120.1875 L 79.203125 -120.1875 C 63.460938 -105.042969 43.148438 -85.574219 23.675781 -68.628906 C 22.59375 -67.664062 21.753906 -67.304688 21.03125 -67.304688 C 19.832031 -67.304688 19.109375 -68.386719 19.109375 -70.671875 L 19.109375 -120.1875 L 9.613281 -120.1875 Z M 9.613281 0 "/></g></g></g><g clip-path="url(#f0ea528c01)"><path fill="#941b1b" d="M 149.59375 94.042969 L 188.265625 94.042969 L 188.265625 232.910156 L 149.59375 232.910156 Z M 149.59375 94.042969 " fill-opacity="1" fill-rule="nonzero"/></g><g clip-path="url(#0e98151cf4)"><path fill="#000000" d="M 60.679688 247.71875 L 313.863281 247.71875 L 313.863281 278.59375 L 60.679688 278.59375 Z M 60.679688 247.71875 " fill-opacity="1" fill-rule="nonzero"/></g><g fill="#faf6f5" fill-opacity="1"><g transform="translate(87.714842, 228.969873)"><g><path d="M 92.90625 0 L 92.90625 -10.695312 C 80.644531 -6.609375 47.355469 -2.402344 25.480469 -2.402344 C 21.152344 -2.402344 19.109375 -4.085938 19.109375 -10.578125 L 19.109375 -120.1875 L 9.613281 -120.1875 L 9.613281 0 Z M 92.90625 0 "/></g></g></g><g fill="#faf6f5" fill-opacity="1"><g transform="translate(74.890643, 267.734368)"><g><path d="M 2.171875 -9.125 L 2.171875 -1.03125 L 6.671875 -1.03125 L 6.671875 0 L 1 0 L 1 -9.125 Z M 2.171875 -9.125 "/></g></g></g><g fill="#faf6f5" fill-opacity="1"><g transform="translate(91.86346, 267.734368)"><g><path d="M 2.28125 -4.15625 L 2.28125 -1.03125 L 7.671875 -1.03125 L 7.671875 0 L 1.125 0 L 1.125 -9.125 L 7.4375 -9.125 L 7.4375 -8.09375 L 2.28125 -8.09375 L 2.28125 -5.1875 L 7.265625 -5.1875 L 7.265625 -4.15625 Z M 2.28125 -4.15625 "/></g></g></g><g fill="#faf6f5" fill-opacity="1"><g transform="translate(110.226918, 267.734368)"><g><path d="M 2.15625 -3.1875 L 2.15625 0 L 0.984375 0 L 0.984375 -9.125 L 2.15625 -9.125 L 2.15625 -4.5 L 6.6875 -9.125 L 8.1875 -9.125 L 4.484375 -5.40625 L 8.234375 0 L 6.859375 0 L 3.640625 -4.671875 Z M 2.15625 -3.1875 "/></g></g></g><g fill="#faf6f5" fill-opacity="1"><g transform="translate(128.590375, 267.734368)"><g><path d="M 2.15625 -3.1875 L 2.15625 0 L 0.984375 0 L 0.984375 -9.125 L 2.15625 -9.125 L 2.15625 -4.5 L 6.6875 -9.125 L 8.1875 -9.125 L 4.484375 -5.40625 L 8.234375 0 L 6.859375 0 L 3.640625 -4.671875 Z M 2.15625 -3.1875 "/></g></g></g><g fill="#faf6f5" fill-opacity="1"><g transform="translate(146.953833, 267.734368)"><g><path d="M 2.28125 -4.15625 L 2.28125 -1.03125 L 7.671875 -1.03125 L 7.671875 0 L 1.125 0 L 1.125 -9.125 L 7.4375 -9.125 L 7.4375 -8.09375 L 2.28125 -8.09375 L 2.28125 -5.1875 L 7.265625 -5.1875 L 7.265625 -4.15625 Z M 2.28125 -4.15625 "/></g></g></g><g fill="#faf6f5" fill-opacity="1"><g transform="translate(165.317291, 267.734368)"><g><path d="M 2.171875 -9.125 L 2.171875 -1.03125 L 6.671875 -1.03125 L 6.671875 0 L 1 0 L 1 -9.125 Z M 2.171875 -9.125 "/></g></g></g><g fill="#faf6f5" fill-opacity="1"><g transform="translate(182.290108, 267.734368)"><g><path d="M 2.28125 -4.15625 L 2.28125 -1.03125 L 7.671875 -1.03125 L 7.671875 0 L 1.125 0 L 1.125 -9.125 L 7.4375 -9.125 L 7.4375 -8.09375 L 2.28125 -8.09375 L 2.28125 -5.1875 L 7.265625 -5.1875 L 7.265625 -4.15625 Z M 2.28125 -4.15625 "/></g></g></g><g fill="#faf6f5" fill-opacity="1"><g transform="translate(200.65356, 267.734368)"><g><path d="M 2.28125 -4.15625 L 2.28125 -1.03125 L 7.671875 -1.03125 L 7.671875 0 L 1.125 0 L 1.125 -9.125 L 7.4375 -9.125 L 7.4375 -8.09375 L 2.28125 -8.09375 L 2.28125 -5.1875 L 7.265625 -5.1875 L 7.265625 -4.15625 Z M 2.28125 -4.15625 "/></g></g></g><g fill="#faf6f5" fill-opacity="1"><g transform="translate(219.017023, 267.734368)"><g><path d="M 4.28125 -0.734375 C 4.65625 -0.734375 4.984375 -0.769531 5.265625 -0.84375 C 5.554688 -0.914062 5.785156 -1.007812 5.953125 -1.125 C 6.117188 -1.238281 6.253906 -1.375 6.359375 -1.53125 C 6.460938 -1.6875 6.53125 -1.828125 6.5625 -1.953125 C 6.59375 -2.085938 6.609375 -2.234375 6.609375 -2.390625 C 6.609375 -2.742188 6.472656 -3.039062 6.203125 -3.28125 C 5.929688 -3.53125 5.507812 -3.726562 4.9375 -3.875 L 2.671875 -4.46875 C 1.472656 -4.78125 0.875 -5.488281 0.875 -6.59375 C 0.875 -7.425781 1.164062 -8.082031 1.75 -8.5625 C 2.332031 -9.039062 3.125 -9.28125 4.125 -9.28125 C 5.164062 -9.28125 5.976562 -9.03125 6.5625 -8.53125 C 7.15625 -8.03125 7.453125 -7.332031 7.453125 -6.4375 L 6.359375 -6.4375 C 6.347656 -7.03125 6.144531 -7.488281 5.75 -7.8125 C 5.363281 -8.132812 4.804688 -8.296875 4.078125 -8.296875 C 3.460938 -8.296875 2.96875 -8.15625 2.59375 -7.875 C 2.21875 -7.59375 2.03125 -7.222656 2.03125 -6.765625 C 2.03125 -6.410156 2.140625 -6.128906 2.359375 -5.921875 C 2.585938 -5.722656 2.984375 -5.550781 3.546875 -5.40625 L 5.828125 -4.796875 C 6.453125 -4.628906 6.929688 -4.34375 7.265625 -3.9375 C 7.609375 -3.539062 7.78125 -3.0625 7.78125 -2.5 C 7.78125 -2.257812 7.75 -2.019531 7.6875 -1.78125 C 7.625 -1.539062 7.503906 -1.289062 7.328125 -1.03125 C 7.160156 -0.78125 6.945312 -0.554688 6.6875 -0.359375 C 6.4375 -0.171875 6.097656 -0.0195312 5.671875 0.09375 C 5.242188 0.21875 4.753906 0.28125 4.203125 0.28125 C 3.859375 0.28125 3.53125 0.253906 3.21875 0.203125 C 2.90625 0.148438 2.585938 0.0507812 2.265625 -0.09375 C 1.941406 -0.238281 1.660156 -0.425781 1.421875 -0.65625 C 1.191406 -0.894531 1 -1.203125 0.84375 -1.578125 C 0.6875 -1.960938 0.601562 -2.40625 0.59375 -2.90625 L 1.703125 -2.90625 L 1.703125 -2.84375 C 1.703125 -2.582031 1.738281 -2.335938 1.8125 -2.109375 C 1.894531 -1.878906 2.023438 -1.65625 2.203125 -1.4375 C 2.390625 -1.226562 2.660156 -1.054688 3.015625 -0.921875 C 3.367188 -0.796875 3.789062 -0.734375 4.28125 -0.734375 Z M 4.28125 -0.734375 "/></g></g></g><g fill="#faf6f5" fill-opacity="1"><g transform="translate(237.380486, 267.734368)"><g><path d="M 2.390625 -1.296875 L 2.390625 0 L 1.078125 0 L 1.078125 -1.296875 Z M 2.390625 -1.296875 "/></g></g></g><g fill="#faf6f5" fill-opacity="1"><g transform="translate(250.876709, 267.734368)"><g><path d="M 0.59375 -4.453125 C 0.59375 -4.742188 0.609375 -5.03125 0.640625 -5.3125 C 0.679688 -5.601562 0.75 -5.910156 0.84375 -6.234375 C 0.9375 -6.554688 1.050781 -6.859375 1.1875 -7.140625 C 1.320312 -7.429688 1.5 -7.707031 1.71875 -7.96875 C 1.945312 -8.238281 2.203125 -8.46875 2.484375 -8.65625 C 2.765625 -8.84375 3.097656 -8.992188 3.484375 -9.109375 C 3.878906 -9.222656 4.304688 -9.28125 4.765625 -9.28125 C 6.753906 -9.28125 7.925781 -8.285156 8.28125 -6.296875 L 7.09375 -6.296875 C 6.957031 -6.953125 6.691406 -7.441406 6.296875 -7.765625 C 5.910156 -8.085938 5.351562 -8.25 4.625 -8.25 C 3.75 -8.25 3.050781 -7.910156 2.53125 -7.234375 C 2.019531 -6.554688 1.765625 -5.632812 1.765625 -4.46875 C 1.765625 -3.320312 2.03125 -2.410156 2.5625 -1.734375 C 3.101562 -1.066406 3.828125 -0.734375 4.734375 -0.734375 C 5.484375 -0.734375 6.054688 -0.945312 6.453125 -1.375 C 6.859375 -1.800781 7.128906 -2.453125 7.265625 -3.328125 L 8.46875 -3.328125 C 8.1875 -0.921875 6.9375 0.28125 4.71875 0.28125 C 4.1875 0.28125 3.703125 0.207031 3.265625 0.0625 C 2.835938 -0.0820312 2.476562 -0.28125 2.1875 -0.53125 C 1.894531 -0.78125 1.640625 -1.0625 1.421875 -1.375 C 1.210938 -1.6875 1.050781 -2.023438 0.9375 -2.390625 C 0.820312 -2.765625 0.734375 -3.117188 0.671875 -3.453125 C 0.617188 -3.785156 0.59375 -4.117188 0.59375 -4.453125 Z M 0.59375 -4.453125 "/></g></g></g><g fill="#faf6f5" fill-opacity="1"><g transform="translate(269.928534, 267.734368)"><g><path d="M 9.296875 -4.421875 C 9.296875 -3.765625 9.191406 -3.148438 8.984375 -2.578125 C 8.773438 -2.003906 8.484375 -1.503906 8.109375 -1.078125 C 7.734375 -0.648438 7.265625 -0.316406 6.703125 -0.078125 C 6.148438 0.160156 5.539062 0.28125 4.875 0.28125 C 3.5625 0.28125 2.5 -0.15625 1.6875 -1.03125 C 0.875 -1.90625 0.46875 -3.054688 0.46875 -4.484375 C 0.46875 -5.910156 0.875 -7.066406 1.6875 -7.953125 C 2.5 -8.835938 3.5625 -9.28125 4.875 -9.28125 C 6.207031 -9.28125 7.273438 -8.835938 8.078125 -7.953125 C 8.890625 -7.066406 9.296875 -5.890625 9.296875 -4.421875 Z M 4.875 -8.25 C 3.90625 -8.25 3.125 -7.90625 2.53125 -7.21875 C 1.9375 -6.53125 1.640625 -5.617188 1.640625 -4.484375 C 1.640625 -3.359375 1.9375 -2.453125 2.53125 -1.765625 C 3.125 -1.078125 3.90625 -0.734375 4.875 -0.734375 C 5.84375 -0.734375 6.625 -1.070312 7.21875 -1.75 C 7.820312 -2.4375 8.125 -3.332031 8.125 -4.4375 C 8.125 -5.59375 7.828125 -6.515625 7.234375 -7.203125 C 6.640625 -7.898438 5.851562 -8.25 4.875 -8.25 Z M 4.875 -8.25 "/></g></g></g><g fill="#faf6f5" fill-opacity="1"><g transform="translate(289.682614, 267.734368)"><g><path d="M 5.859375 0 L 4.625 0 L 2.03125 -7.640625 L 2.03125 0 L 0.9375 0 L 0.9375 -9.125 L 2.546875 -9.125 L 5.25 -1.171875 L 7.90625 -9.125 L 9.53125 -9.125 L 9.53125 0 L 8.421875 0 L 8.421875 -7.640625 Z M 5.859375 0 "/></g></g></g></svg>