<svg xmlns="http://www.w3.org/2000/svg" xmlns:xlink="http://www.w3.org/1999/xlink" width="300" zoomAndPan="magnify" viewBox="0 0 224.87999 30.000001" height="40" preserveAspectRatio="xMidYMid meet" version="1.0"><defs><g/><clipPath id="f22d896095"><path d="M 3.570312 0.90625 L 221 0.90625 L 221 28 L 3.570312 28 Z M 3.570312 0.90625 " clip-rule="nonzero"/></clipPath><clipPath id="92b463a8cd"><path d="M 7.925781 0.90625 L 216.957031 0.90625 C 218.109375 0.90625 219.21875 1.367188 220.035156 2.183594 C 220.851562 3 221.3125 4.105469 221.3125 5.261719 L 221.3125 23.835938 C 221.3125 24.988281 220.851562 26.097656 220.035156 26.914062 C 219.21875 27.730469 218.109375 28.1875 216.957031 28.1875 L 7.925781 28.1875 C 6.769531 28.1875 5.660156 27.730469 4.84375 26.914062 C 4.027344 26.097656 3.570312 24.988281 3.570312 23.835938 L 3.570312 5.261719 C 3.570312 4.105469 4.027344 3 4.84375 2.183594 C 5.660156 1.367188 6.769531 0.90625 7.925781 0.90625 " clip-rule="nonzero"/></clipPath></defs><g clip-path="url(#f22d896095)"><g clip-path="url(#92b463a8cd)"><path fill="#000000" d="M 3.570312 0.90625 L 220.917969 0.90625 L 220.917969 27.414062 L 3.570312 27.414062 Z M 3.570312 0.90625 " fill-opacity="1" fill-rule="nonzero"/></g></g><g fill="#faf6f5" fill-opacity="1"><g transform="translate(15.768058, 18.057326)"><g><path d="M 1.859375 -7.84375 L 1.859375 -0.890625 L 5.734375 -0.890625 L 5.734375 0 L 0.859375 0 L 0.859375 -7.84375 Z M 1.859375 -7.84375 "/></g></g></g><g fill="#faf6f5" fill-opacity="1"><g transform="translate(30.338739, 18.057326)"><g><path d="M 1.96875 -3.578125 L 1.96875 -0.890625 L 6.59375 -0.890625 L 6.59375 0 L 0.96875 0 L 0.96875 -7.84375 L 6.390625 -7.84375 L 6.390625 -6.953125 L 1.96875 -6.953125 L 1.96875 -4.453125 L 6.234375 -4.453125 L 6.234375 -3.578125 Z M 1.96875 -3.578125 "/></g></g></g><g fill="#faf6f5" fill-opacity="1"><g transform="translate(46.103246, 18.057326)"><g><path d="M 1.84375 -2.734375 L 1.84375 0 L 0.84375 0 L 0.84375 -7.84375 L 1.84375 -7.84375 L 1.84375 -3.875 L 5.75 -7.84375 L 7.03125 -7.84375 L 3.84375 -4.640625 L 7.078125 0 L 5.890625 0 L 3.125 -4.015625 Z M 1.84375 -2.734375 "/></g></g></g><g fill="#faf6f5" fill-opacity="1"><g transform="translate(61.867753, 18.057326)"><g><path d="M 1.84375 -2.734375 L 1.84375 0 L 0.84375 0 L 0.84375 -7.84375 L 1.84375 -7.84375 L 1.84375 -3.875 L 5.75 -7.84375 L 7.03125 -7.84375 L 3.84375 -4.640625 L 7.078125 0 L 5.890625 0 L 3.125 -4.015625 Z M 1.84375 -2.734375 "/></g></g></g><g fill="#faf6f5" fill-opacity="1"><g transform="translate(77.63226, 18.057326)"><g><path d="M 1.96875 -3.578125 L 1.96875 -0.890625 L 6.59375 -0.890625 L 6.59375 0 L 0.96875 0 L 0.96875 -7.84375 L 6.390625 -7.84375 L 6.390625 -6.953125 L 1.96875 -6.953125 L 1.96875 -4.453125 L 6.234375 -4.453125 L 6.234375 -3.578125 Z M 1.96875 -3.578125 "/></g></g></g><g fill="#faf6f5" fill-opacity="1"><g transform="translate(93.396767, 18.057326)"><g><path d="M 1.859375 -7.84375 L 1.859375 -0.890625 L 5.734375 -0.890625 L 5.734375 0 L 0.859375 0 L 0.859375 -7.84375 Z M 1.859375 -7.84375 "/></g></g></g><g fill="#faf6f5" fill-opacity="1"><g transform="translate(107.967448, 18.057326)"><g><path d="M 1.96875 -3.578125 L 1.96875 -0.890625 L 6.59375 -0.890625 L 6.59375 0 L 0.96875 0 L 0.96875 -7.84375 L 6.390625 -7.84375 L 6.390625 -6.953125 L 1.96875 -6.953125 L 1.96875 -4.453125 L 6.234375 -4.453125 L 6.234375 -3.578125 Z M 1.96875 -3.578125 "/></g></g></g><g fill="#faf6f5" fill-opacity="1"><g transform="translate(123.73195, 18.057326)"><g><path d="M 1.96875 -3.578125 L 1.96875 -0.890625 L 6.59375 -0.890625 L 6.59375 0 L 0.96875 0 L 0.96875 -7.84375 L 6.390625 -7.84375 L 6.390625 -6.953125 L 1.96875 -6.953125 L 1.96875 -4.453125 L 6.234375 -4.453125 L 6.234375 -3.578125 Z M 1.96875 -3.578125 "/></g></g></g><g fill="#faf6f5" fill-opacity="1"><g transform="translate(139.496461, 18.057326)"><g><path d="M 3.671875 -0.640625 C 3.992188 -0.640625 4.28125 -0.671875 4.53125 -0.734375 C 4.78125 -0.796875 4.972656 -0.875 5.109375 -0.96875 C 5.253906 -1.0625 5.367188 -1.175781 5.453125 -1.3125 C 5.546875 -1.445312 5.601562 -1.570312 5.625 -1.6875 C 5.65625 -1.800781 5.671875 -1.921875 5.671875 -2.046875 C 5.671875 -2.359375 5.550781 -2.617188 5.3125 -2.828125 C 5.082031 -3.035156 4.722656 -3.203125 4.234375 -3.328125 L 2.296875 -3.84375 C 1.265625 -4.101562 0.75 -4.707031 0.75 -5.65625 C 0.75 -6.375 1 -6.9375 1.5 -7.34375 C 2 -7.757812 2.679688 -7.96875 3.546875 -7.96875 C 4.441406 -7.96875 5.140625 -7.753906 5.640625 -7.328125 C 6.140625 -6.898438 6.394531 -6.300781 6.40625 -5.53125 L 5.453125 -5.53125 C 5.453125 -6.039062 5.28125 -6.429688 4.9375 -6.703125 C 4.601562 -6.984375 4.125 -7.125 3.5 -7.125 C 2.976562 -7.125 2.554688 -7.003906 2.234375 -6.765625 C 1.910156 -6.523438 1.75 -6.207031 1.75 -5.8125 C 1.75 -5.5 1.84375 -5.257812 2.03125 -5.09375 C 2.226562 -4.925781 2.566406 -4.773438 3.046875 -4.640625 L 5.015625 -4.109375 C 5.546875 -3.972656 5.953125 -3.734375 6.234375 -3.390625 C 6.523438 -3.046875 6.671875 -2.632812 6.671875 -2.15625 C 6.671875 -1.9375 6.644531 -1.722656 6.59375 -1.515625 C 6.539062 -1.316406 6.441406 -1.109375 6.296875 -0.890625 C 6.148438 -0.671875 5.96875 -0.476562 5.75 -0.3125 C 5.53125 -0.15625 5.234375 -0.0234375 4.859375 0.078125 C 4.492188 0.191406 4.078125 0.25 3.609375 0.25 C 3.316406 0.25 3.035156 0.222656 2.765625 0.171875 C 2.492188 0.128906 2.21875 0.046875 1.9375 -0.078125 C 1.664062 -0.210938 1.425781 -0.375 1.21875 -0.5625 C 1.019531 -0.757812 0.851562 -1.023438 0.71875 -1.359375 C 0.582031 -1.691406 0.515625 -2.070312 0.515625 -2.5 L 1.46875 -2.5 L 1.46875 -2.4375 C 1.46875 -2.21875 1.5 -2.007812 1.5625 -1.8125 C 1.632812 -1.613281 1.742188 -1.421875 1.890625 -1.234375 C 2.046875 -1.054688 2.273438 -0.910156 2.578125 -0.796875 C 2.890625 -0.691406 3.253906 -0.640625 3.671875 -0.640625 Z M 3.671875 -0.640625 "/></g></g></g><g fill="#faf6f5" fill-opacity="1"><g transform="translate(155.260972, 18.057326)"><g><path d="M 2.046875 -1.109375 L 2.046875 0 L 0.9375 0 L 0.9375 -1.109375 Z M 2.046875 -1.109375 "/></g></g></g><g fill="#faf6f5" fill-opacity="1"><g transform="translate(166.847096, 18.057326)"><g><path d="M 0.515625 -3.828125 C 0.515625 -4.078125 0.53125 -4.320312 0.5625 -4.5625 C 0.59375 -4.8125 0.644531 -5.078125 0.71875 -5.359375 C 0.800781 -5.640625 0.898438 -5.898438 1.015625 -6.140625 C 1.140625 -6.390625 1.296875 -6.625 1.484375 -6.84375 C 1.671875 -7.070312 1.882812 -7.265625 2.125 -7.421875 C 2.363281 -7.585938 2.648438 -7.71875 2.984375 -7.8125 C 3.328125 -7.914062 3.695312 -7.96875 4.09375 -7.96875 C 5.800781 -7.96875 6.8125 -7.113281 7.125 -5.40625 L 6.09375 -5.40625 C 5.976562 -5.96875 5.75 -6.382812 5.40625 -6.65625 C 5.070312 -6.9375 4.597656 -7.078125 3.984375 -7.078125 C 3.222656 -7.078125 2.617188 -6.785156 2.171875 -6.203125 C 1.734375 -5.628906 1.515625 -4.84375 1.515625 -3.84375 C 1.515625 -2.851562 1.742188 -2.070312 2.203125 -1.5 C 2.660156 -0.925781 3.28125 -0.640625 4.0625 -0.640625 C 4.707031 -0.640625 5.203125 -0.816406 5.546875 -1.171875 C 5.890625 -1.535156 6.125 -2.097656 6.25 -2.859375 L 7.28125 -2.859375 C 7.039062 -0.785156 5.96875 0.25 4.0625 0.25 C 3.601562 0.25 3.1875 0.1875 2.8125 0.0625 C 2.4375 -0.0625 2.125 -0.234375 1.875 -0.453125 C 1.625 -0.671875 1.40625 -0.914062 1.21875 -1.1875 C 1.039062 -1.457031 0.898438 -1.75 0.796875 -2.0625 C 0.703125 -2.375 0.628906 -2.671875 0.578125 -2.953125 C 0.535156 -3.242188 0.515625 -3.535156 0.515625 -3.828125 Z M 0.515625 -3.828125 "/></g></g></g><g fill="#faf6f5" fill-opacity="1"><g transform="translate(183.202547, 18.057326)"><g><path d="M 7.984375 -3.796875 C 7.984375 -3.234375 7.894531 -2.703125 7.71875 -2.203125 C 7.539062 -1.710938 7.289062 -1.285156 6.96875 -0.921875 C 6.644531 -0.554688 6.242188 -0.269531 5.765625 -0.0625 C 5.285156 0.144531 4.757812 0.25 4.1875 0.25 C 3.0625 0.25 2.148438 -0.125 1.453125 -0.875 C 0.753906 -1.632812 0.40625 -2.628906 0.40625 -3.859375 C 0.40625 -5.078125 0.753906 -6.066406 1.453125 -6.828125 C 2.148438 -7.585938 3.0625 -7.96875 4.1875 -7.96875 C 5.332031 -7.96875 6.25 -7.585938 6.9375 -6.828125 C 7.632812 -6.066406 7.984375 -5.054688 7.984375 -3.796875 Z M 4.1875 -7.078125 C 3.351562 -7.078125 2.679688 -6.78125 2.171875 -6.1875 C 1.660156 -5.601562 1.40625 -4.828125 1.40625 -3.859375 C 1.40625 -2.890625 1.660156 -2.109375 2.171875 -1.515625 C 2.679688 -0.929688 3.351562 -0.640625 4.1875 -0.640625 C 5.019531 -0.640625 5.691406 -0.929688 6.203125 -1.515625 C 6.722656 -2.097656 6.984375 -2.863281 6.984375 -3.8125 C 6.984375 -4.800781 6.726562 -5.59375 6.21875 -6.1875 C 5.707031 -6.78125 5.03125 -7.078125 4.1875 -7.078125 Z M 4.1875 -7.078125 "/></g></g></g><g fill="#faf6f5" fill-opacity="1"><g transform="translate(200.160864, 18.057326)"><g><path d="M 5.03125 0 L 3.984375 0 L 1.75 -6.5625 L 1.75 0 L 0.796875 0 L 0.796875 -7.84375 L 2.1875 -7.84375 L 4.515625 -1.015625 L 6.796875 -7.84375 L 8.1875 -7.84375 L 8.1875 0 L 7.234375 0 L 7.234375 -6.5625 Z M 5.03125 0 "/></g></g></g></svg>